<?xml version="1.0" encoding="utf-8"?>
<!-- Generator: Adobe Illustrator 26.0.2, SVG Export Plug-In . SVG Version: 6.00 Build 0)  -->
<svg version="1.1" id="Lager_1" xmlns="http://www.w3.org/2000/svg" xmlns:xlink="http://www.w3.org/1999/xlink" x="0px" y="0px"
	 viewBox="0 0 595.28 841.89" style="enable-background:new 0 0 595.28 841.89;" xml:space="preserve">
<path d="M318.96,363.65c0.32,24.21,6.8,36.67,11.4,44.09c8.94-3.54,19.95-12.38,24.27-22.95c-9.82,10.11-18,10.84-18.31,10.34
	c-7.38-5.5-11-14.45-12.94-19.73c-1.02-2.77,1.48-16.96,6.98-20.89c-7.59-7.2,5.02-2.5,6.63-3.22c-2.51-0.67-8.12-5.85-7.78-6.3
	c0-5.36,10.79-10.38,10.55-11.19c-0.57,0.39-4.58,1.72-6,2.22c-1.03,0.36-2.61-0.84-3.94-1.34c1-1,6.08-9.38,6.93-9.3
	c3.4,0.34,7.16,0.44,10.05,2.01c6.81,3.69,9.69,2.06,16.12,6.41c0.71,0.48,4.55,9.12,3.95,9.82c-4.74,5.52-6.83,16.01-3.3,21.42
	c1.56,2.4,4.56,3.86,7.28,5.6c-4.51-8.12-11.21-15.89-2.98-25.31c-0.39,4.38-2.27,8.44,0.03,13.03c2.6,3.36,5.14,2.22,6.11,2.1
	c4.28-0.52-2.58-12.46-6.32-14.97l1.43-6.08c4.28,9.78,16.36,22.17,22.62,33.63c-16.66-15.59-15.29-11.31-8.41,4.13
	c-0.3-0.09-5.04-5.5-9.02-4.13c-3.67,1.99-1.01,7.01-1.22,10.84c0,5.21,4.67,15.49,9.62,18.88c-8.7-1.43-20.31-32.83-20.91-33.53
	c2.11,9.32,0.94,27.33-1.53,33.63c-3.89,8.15-6.56,23.92-6.16,24.6c1.48,2.49-0.74,9.48,7.05,3.64c8.72-7.3,22.28-9.84,30.88-9.44
	c9.94,7.64,6.16,1.4,8.46-3.2c4.07-7.34,14.01-5.97,15.54-8.18c0-12.92-37.01-62.91-37.76-66.73c3.82,4.82,33.77,44.73,37.57,49.56
	c6.23,7.92,11.91,16.34,18.76,23.67c18.25,19.53,36.64,38.94,55.66,57.72c14.97,14.78,31.17,28.29,46.38,42.84
	c11.45,10.95,17.58,24.95,20.26,40.46c0.84,4.88-3.36,10.52-9.08,12.87c-13.48,5.54-27.63,7.36-41.9,5.67
	c-12.21-1.45-24.19-4.72-36.31-6.93c-11.98-0.63-39.77-7.52-46.59-8.5c-14.92,2.77-28.07,21.06-59.81,20.82
	c-14.12-1.85-46-13.43-59.57-25.67c-4.25-3.83-9.74-5.62-10.23-12.86c-2.61-5.17-6.7-13.76-2.63-36.39
	c0.05-0.08,0.17-0.06,0.18,0.03c0.27,9.97,7.79,15.71,8.1,18.95c2.02-1.68,4.32-0.64,6.61-7.06c-1.22,11.92-0.46,14.37,1.68,14.98
	c5.2,2.75,8.71-5.04,13.77-16.51c-0.03,7.59-2.46,11.61-2.31,16.51c-0.76,9.48-1.74,14.31,5.36,17.75
	c8.25,3.2,10.39-21.11,18.01-28.62c-0.96,7.5-2.32,13.72-2.36,19.95c-0.03,5.05,0.08,17.22,6.76,17.76
	c10.65,3.6,11.93-19.24,13.3-25.21c2.79,9.38-3.63,28.81,13.22,29.48c5.7-3.89,8.05-12.19,7.15-17.97
	c-0.4-2.58,4.59-15.59-3.78-21.21c-3.53-3.42-9.97-7.38-12.73-7.84c-3.36-0.61-3.7,10.33-4.09,14.62
	c-1.51-6.08-3.52-11.54-4.03-17.14c-0.37-4.02-3.06-4.73-5.39-5.2c-1.58-0.32-2.22,1.69-5.14,5.73c0.92-8.41-2.49-10.94-5.39-12.23
	c-2.26-1.01-6.03-9.42-9.57-0.73c-4.91-1.1-5.9-7.07-11.18-5.7c-2.96,0.77-15.43-3.05-26.75,1.54c6.22-12.99,2.1-16.43,5.79-41.37
	c-3.69,13.93-6.35,17.29-6.45,25.17c2.25,7.71-2.24,12.59-2.09,17.32c-5.2-8.73-11.36-16.16-13.45-17.33
	c-2.62-1.47-7.34-1.56-11.81,4.24c0.34-6.31-3.55-12.73-11.71-6.54c2.2-7.8-0.63-8.66-6.03-11.07c-6.79,0.18-9.09,8.2-13.21,8.2
	c-1.38-2.63-1.15-7.1,1.92-11.43c-12.54,0.2-17.25,7.94-23.59,16.94c-2.43,3.45-7.08,7.29-9.75,10.56
	c-7.22,7.09-1.72,16.38,3.33,18.21c6.31,2.52,16.59-20,26.62-30.96c-3.26,6.63-16.76,29.93-11.19,32.98
	c6.7,4.06,11.09-1.5,12.74-3.61c3.94-5.04,11.96-19.27,15.74-20.42c-1.66,6.04-6.08,26.6-1.95,25.8c5.37,1.72,6.54-8.71,13.41-14.9
	c-2.06,10.32-4.82,15.82-2.06,16.85c3.67-0.34,4.99-5.96,7.7-6.46c6.18-1.8,8.01,1.18,20.53-2.6c-9.42,9.4-24.19,16.4-28.38,18.18
	c-13.62,5.74-27.6,8.2-42.43,4.89c-12.69-2.83-23.18-9.37-33.98-16.23c-9.98-6.34-18-13.98-24.38-23.55
	c-6.4-9.59-10.4-20.03-7.28-31.8c1.18-4.45-0.21-6.3-4.14-8.43c-11.28-6.1-62.34-35.8-76.29-44.92
	c-13.36-8.73-24.52-19.97-29.66-35.62c-0.9-2.74,0.42-7.36,2.38-9.7c7.19-8.56,17.74-11.02,27.99-13.86
	c22.94-6.35,46.37-5.55,69.78-4.95c12.96,0.33,25.94,1.35,38.88,0.96c31.93-0.63,130.64-17.6,144.64-20.28
	c0.32-0.04,0.41,0.42,0.1,0.5c-12.34,3.54-46.93,10.58-55.32,13.79c-3.58,1.37-8.19,3.75-11.97,5.34
	c-8.81,4.7,6.54,12.17,1.13,15.52c-2.74,3.07-4.68,8.69,5.74,10.68c3.9,2.14,6.31,14.75,10.71,18.51c1.56,6.9,3.02,13.3,6.15,15.5
	c2.13,1.51,7.86-1.91,9.86-3.9c4.97-4.95,16.71-19.38,24.54-29.46c-6.19,4.7-10.78,7.33-20.45,11.12
	c10.14-8.94,19.42-25.68,21.6-33.82c5.16-7.91-33.88-2.65-33.63-2.6c22.7-7.11,34.74-6.63,38.3-10.47c0.73-0.79,1.74-1.33,2.62-1.98
	c-0.4,1.08,1,3.93,2.25,4.34c-0.73,1.64-0.86,5.6-0.12,6.19c-3.47,3.3-2.37,8.04-3.83,11.95c-0.55,1.46-2.33,2.47-3.55,3.68
	c0.36-1.4,0.72-2.8,1.5-5.84C311.42,361.33,318.72,366.19,318.96,363.65z M495.09,522.21c-4.85-1.6-1.08-6.09-12.55-6.25
	c-2.6,1.38-1.5,6.66-1.28,9.21c-2.12-7.5-10.34-9.97-28.22-14.08c-3.06,0,6.27,12.36,16.36,41.56c2.03,4.8,6.2,10.51,11.31,11.01
	c0.98,0.09,4.7-1.75,4.71-2.38c0.03-5.67-0.13-11.35-0.57-17c-0.22-2.86-1.13-5.67-1.71-8.51c-0.51-2.46-1-4.92-1.5-7.38
	c2.99,3.88,3.35,8.66,5.95,13.55c4.16,10.38,8.09,17.35,15.14,24.81c1.62,1.72,9.41,2.71,10.56-2.25
	c3.19-5.83-13.26-33.85-17.14-41.36c1.54,1.65,28.2,40.45,31.91,44.54c0.9,1,3.44,1.35,4.77,0.83c4.14-1.35,0.39-13.04-1.59-16.75
	c-6.26-11.76-13.07-23.23-19.9-34.67c-2.29-3.85-4.43-6.89-10.53-3.74C496.33,515.67,492.34,516.09,495.09,522.21z M144.4,371.62
	c-2.98,4.59-4.62,8.65-3.01,9.46c6.22,3.99,18.94,6.24,24.33,12.09c13.3,2.41,5.54-17.35,2.16-21.29
	c-16.26-15.74-0.9-13.22,4.11-12.18c3.5,0.38,8.93-0.16,10.09,1.78c3.65,6.07,6.15,12.96,8.21,19.8c2.16,7.17-0.38,19.58,22.55,8
	c-12.04,8.6-9.29,8.25-9.9,10.1c3.36,6.53,19.07,0.68,28.93-2.99c-4.36,4.13-3.42,11.23-1.95,13.87
	c3.24,5.83,5.01,12.73,11.69,14.68c8.71,0.39,28.01-10.72,26.03-21.32c-0.68-3.64,4.36-7.8,1.03-12.35
	c-2.63-3.25-7.74-16.36-16.18-16.77c-7.66,1.26-9.38-4.01-4.63-11.32c1.88-4.92-2.43-11-7.55-11.29c-2.11-0.12-5.46,0.14-6.22-2.52
	c1.56-2.96,14.15-6.59,14.17-6.75c-1.85-0.19-13.27,1.17-18.57,1.72c-9.57,1.5-59.27,3.32-66.61,4.4
	c19.83,1.79,29.92,1.33,35.2,1.56c-4.7,1.61-18.92,3.9-32.89,3.02c-12.34-1.88-20.81-3.01-33.33,0.75c-2.66,0.8-5.77,1.01-7.88,2.56
	c-3.72,2.74,0.59,4.58,1.5,6.81c0.06,0.14,0.05,0.31,0.03,0.46c-0.56,6.67,3.24,7.47,8.59,6.61c0.98-0.16,14.28-3.54,15.37-3.02
	c-0.98,0.59-24.31,6.31-18.7,7.71C134.43,378.73,141.08,374.14,144.4,371.62z M468.78,486.15c-9.17-11.62-14.11-2.85-19.07-0.35
	c-3.03,1.54-6.54,7.65-5.62,10.17c1.32,3.63,6.12,6.61,10.08,8.52c17.97,9.32,15.68,0.46,16.75-9.02
	c0.63,1.07,3.82,15.62,7.95,16.36c3.21,0,5.12-1.42,4.59-2.45c-0.99-1.92-5.2-6.73-9.94-13.15c6.04,4.97,11.46,12.54,16.84,12.57
	c2.18-0.64,3.66-3.41,5.83-4.43c4.29-2.01,5.2-5.09,3.14-7.84c-3.33-4.43-21.54-21.1-49.1-44.38c2.19-0.02,18.82,10.23,19.31,10.07
	c0.4-0.13-41.58-42.58-47.69-50.23c0,3.34,6.27,13.06,13.45,21.4c-6.25-4.13-16.97-14.06-22.52-12.33
	c-6.96-0.79-12.03,12.33-12.34,16.92c-3.93-3.59-9.15-7.98-14.35-8.65c-9.8-2.66-12.25,9.26-19.09,9.53
	c-5.82,2.28-9.08,8.32-8.05,14.59c1.44,11.89,6.56,19.61,12.45,16.38c-0.07,1.69,21.09,5.59,29.96-9.69
	c-0.08,0.91-1.83,9.32-0.92,11.77c0.26,4.84,10.7,18.19,19.11,6.42c5.04-7.8,7.01,8.14,8.56,7.34c4.59,1.68,13.25-11.87,19.83-16.44
	c5.67-3.94,11.44-3.09,14.33,3.04C463.93,475.81,467.59,483.45,468.78,486.15z M202.53,454.28c14.1-7.22,20.87-9.02,26.04-11.7
	c6.03-3.14,6.76-7.04,3.11-12.62c-2.47-3.78-4.67-7.76-7.37-11.38c-1.46-1.96-3.84-4.88-5.58-4.73c-8.47,0.72-15.07-3.85-22.32-6.67
	c-2-0.78-4.18-1.12-6.31-1.5c-6.47-1.14-13.36-1.21-19.33-3.6c-7.57-2.51-18.49-3.28-18.46-3.43c4.59-4,1.15-6.08-4.98-6.74
	c-3.72-1.81-8.66-2.42-11.13-5.24c-1.89-5.91-5.56-2.14-10.26,0.29c-9.05,6.5-18.92,10.55-28.66,16.74
	c-1.18,0.93-4.93,4.01-1.83,7.35c7.9,8.01,19.04,0.85,26.62-1.33c9.57-2.76,16.25-6.82,27.47-9.98c0.28,0.67-8.51,5.95-12.95,9.02
	c-4.52,3.13-7.94,7.99-12.66,10.63c-7.73,4.71,2.63,11.17,4.08,11.24c3.13,0.16,7.91-2.06,11.69-0.8
	c9.06,3.21,18.23-8.47,28.43-13.1c4.18-1.89,7.95-4.68,11.91-7.06c-8.07,7.24-16.8,13.4-25.09,20.1c-2.47,2-6.54,6.94-6.54,9.46
	c3.67,9.06,17.12,1.25,30.36-2.17c6.14-2.19,36.27-20.74,37.17-20.99c-0.04,0.71-15.36,10.55-18.89,13.88
	c-3.96,3.74-20.09,16.28-19.83,22.35c2.3-0.59,4.72-1.13,5.44-1.06c2.79,4.15,9.67-5.59,12.95-2.54c4.98,3.6,13.22-9.3,15.99-3.74
	C209.98,449.33,206.2,450.27,202.53,454.28z M425.71,511.21c0.62,1.61,8.28,31.38,18.13,41.53c8.61,9.85,20.96,6.45,17.3-1.93
	c-3-15.71-7.32-27.98-14.58-39.83c-1.32-2.15-4.68-3.3-7.33-4.32c-5.29-2.02-11.24-2.8-15.96-5.68c-3.06-1.87-5.19-4.63-8.95-6.51
	c-7.91-3.12-16.78-9.85-20.75-10.76c-5.04,0-10.82-0.27-14.68,0.15c-13.74-0.58-15.43,14.35-12.38,20.48
	c2.49,7.96,10.39,15.13,12.38,2.29c0.92,9.48,11.31,31.34,12.12,18.38c1.69,4.27,2.55,11.74,6.52,12.5
	c3.98,0.76,4.74-14.98,2.36-30.34c6.21,10.01,5.46,23.89,8.81,32.75c1.36,3.59,6.12,9.23,9.17,11.81
	C443.41,559.38,422.62,514.89,425.71,511.21z M107.23,359.72c-0.36,0.07-43.28,8.95-48.35,15.43c-1.83,2.54-3.67,3.57-4.34,7.71
	c4.11,2.37,9.78,2.28,10.26,2.17c7.49-1.82,45.55-11.57,56.67-13.64c-0.82-0.61-5.12-1.1-5.78-1.85c-0.52-0.6-0.54-4.56-0.42-5.26
	C115.9,360.68,112.4,359.61,107.23,359.72z M182.15,497.18c3.98,2.51,26.34-19.27,33.79-25.24c1.11-0.89,9.74-10.33,5.85-10.89
	c-4.88-0.7-16.85,7.52-16.74-2.52c-1.83-2.31-5.34-0.92-6.3-0.01c-9.2,8.67-14.77,19.71-19.16,31.31
	C178.95,491.53,178.45,494.75,182.15,497.18z M80.14,401.92c12.09-0.84,29.61-11.67,41.33-16.85c1.5-0.66,7.72-3.99,7.57-4.28
	c-4.36-0.8-5.99-4.35-8.23-5.17c-2.75-1.01-6.41-0.15-9.52,0.59c-4.41,1.04-44.97,13.76-42.09,19.68
	C70.17,397.9,76.41,401.92,80.14,401.92z M49.93,366.8c10.77,0.74,29.19-4.42,36.12-5.54c6.25-1.01,12.63-1.42,18.79-2.79
	c1.95-0.44,6.43-5.54,0.89-8.65c-3.81-0.78-7.99-1.55-11.69-0.76C84.12,351.2,59.1,357.29,49.93,366.8z M545.79,543.03
	c-1.64-7.81-22.32-29.4-25.88-33.27c-3.13-3.41-6.64-1.66-7.77,1.16c-0.01,5.96,32.87,44.56,34.06,45.55
	C547.08,554.6,548.43,547.61,545.79,543.03z M263.75,424.94c-0.38-0.41,3.49-8.19,2.98-7.81c-8.03,7.81-19.61,18.34-27.75,21.1
	c-5.22,3.35-0.39,8.02-2.31,11.01c1.3,0.83,4.03,0.57,5.41,1.23c0.53,0.26,8.62-3.8,11.01-6.39
	C258.89,437.75,258.28,431.57,263.75,424.94z M197.05,456.21c-15.39,0.96-30.57,13.44-31.51,24.71
	C180.65,479.1,187.53,467.28,197.05,456.21z M352.91,483.63c-1.15,0.53,3.97,7.87,7.03,9.4c2.9-2.9,3.84-5.63,3.8-10.44
	c-5.6-9.02-8.23-16.89-8.67-24.73C352.72,461.39,348.71,476.44,352.91,483.63z M385.58,539.25c0,1.65-1.95,25.91,3.1,25.78
	c0.2,0.79,5.04,1.53,8.25-2.75C399.38,560.14,394.18,545.92,385.58,539.25z M301.87,450.47c4.19-12.01,4.74-28.29,5.08-29.53
	c-0.91-8.4,2.15-24.98,1.56-25.14C306.19,402.64,296.66,442.13,301.87,450.47z M288.74,442.82c-2.04,4.47-3.43,17.66,1.27,22.59
	c0.29-1.17,0.88-4.87,0.75-5.99C290.31,455.46,288.17,448.89,288.74,442.82z M344.12,410.25c-4.7,10.09-27.54,37.5-27.29,38.06
	c0.59-0.61,16.89-15.08,17.2-15.81C339.42,425.39,344.13,416.22,344.12,410.25z"/>
<path d="M275.68,288.1c-4.22-4.04-12.5-13.75-11.18-13.87c8.1,0.59,19.83,2.3,28.32,3.5c14.13,2.24,21.41,7.21,25.18,9.92
	c6.84,4.93,13.14,10.62,19.46,15.83c1.43-1.68,3.26-3.84,5.1-5.99c3.99-4.65,4.87-9.97,3.42-15.8c-0.77-2.19-0.6-4.94,0.38-7.28
	c0.45,3.42,2.29,7.42,2.75,9.71c1.07,5.44,0.21,10.42-3.15,15.02c-2.32,3.17-3.29,6.46-0.98,10.53c1.1,1.94,0.92,3.93,0.19,5.81
	c-2.69,2.31-4.89,5.98-8.94,6.57c-6.55-0.42-6.32-4.38-10.97-6.96C316.02,311.03,294.71,305.01,275.68,288.1z"/>
<path d="M446.52,323.19c-13.61,2.18-24.78,4.46-32.2,5.88c-10.86,3.12-21.05-0.56-31.51-1.79c-3.32-0.39-7.42-2.03-8.16,3.88
	c-0.13,1.03-2.62,1.77-4.01,2.64c-0.46-1.42-0.98-2.83-1.37-4.28c-0.2-0.76-0.16-1.59-0.23-2.39c-3.77,0.85-4.81-2.62-7.02-4.32
	c-2.49-1.92-2.45-6.89,0.91-8.62c2.62-2.54,0.44-16.05,14.89-29.82c-9.46,15.65-9.9,27.25-9.13,26.86c1.19-0.6,20.24-8.31,29.9-6.13
	C417.38,307.93,439.25,319.34,446.52,323.19z"/>
<path d="M294.88,355.09c-1.16,0.92-13.32,10.46-3.04,7.47c5.2-1.17,10.46-8.43,15.25-10.86c-5.15,6.08-9.61,12.01-14.89,17.09
	c-1.19,1.14-5.44,0.64-7.93-0.38c-1.02-0.42-4.57-2.1-1.51-5.66C285.04,360.11,291.07,354.38,294.88,355.09z"/>
</svg>
